<?xml version="1.0" encoding="utf-8"?>
<!-- Generator: Adobe Illustrator 22.1.0, SVG Export Plug-In . SVG Version: 6.00 Build 0)  -->
<svg version="1.1" id="Layer_1" xmlns="http://www.w3.org/2000/svg" xmlns:xlink="http://www.w3.org/1999/xlink" x="0px" y="0px"
	 viewBox="0 0 800 1400" style="enable-background:new 0 0 800 1400;" xml:space="preserve">
<g>
	<path d="M710,30c15.9,0,31,6.3,42.3,17.7S770,74.1,770,90v1220c0,15.9-6.3,31-17.7,42.3S725.9,1370,710,1370H90
		c-15.9,0-31-6.3-42.3-17.7S30,1325.9,30,1310V90c0-15.9,6.3-31,17.7-42.3S74.1,30,90,30H710 M710,0H90C40.5,0,0,40.5,0,90v1220
		c0,49.5,40.5,90,90,90h620c49.5,0,90-40.5,90-90V90C800,40.5,759.5,0,710,0L710,0z"/>
</g>
<g>
	<path d="M800,186.6H0V90C0,40.5,40.5,0,90,0h620c49.5,0,90,40.5,90,90V186.6z"/>
</g>
<g>
	<path d="M90,1389.2c-44.1,0-80-35.9-80-80v-75h780v75c0,44.1-35.9,80-80,80H90z"/>
	<path d="M780,1244.2v65c0,18.6-7.3,36.1-20.6,49.4c-13.3,13.3-30.8,20.6-49.4,20.6H90c-18.6,0-36.1-7.3-49.4-20.6
		c-13.3-13.3-20.6-30.8-20.6-49.4v-65H780 M800,1224.2H0v85c0,49.5,40.5,90,90,90h620c49.5,0,90-40.5,90-90V1224.2L800,1224.2z"/>
</g>
</svg>
